<?xml version="1.0" standalone="no"?>
<!DOCTYPE svg PUBLIC "-//W3C//DTD SVG 20010904//EN"
 "http://www.w3.org/TR/2001/REC-SVG-20010904/DTD/svg10.dtd">
<svg version="1.0" xmlns="http://www.w3.org/2000/svg"
 width="1024.000000pt" height="1024.000000pt" viewBox="0 0 1024.000000 1024.000000"
 preserveAspectRatio="xMidYMid meet">

<g transform="translate(0.000000,1024.000000) scale(0.100000,-0.100000)"
fill="#000000" stroke="none">
<path d="M4120 8492 c-288 -24 -606 -179 -741 -359 l-34 -45 -52 7 c-98 12
-324 -31 -463 -88 -158 -65 -276 -157 -380 -298 -67 -90 -147 -246 -170 -332
l-17 -62 -80 -41 c-294 -149 -504 -463 -533 -797 -17 -201 12 -358 98 -518
l46 -85 -32 -96 c-50 -150 -65 -267 -58 -448 7 -209 40 -343 129 -525 110
-225 178 -315 400 -532 203 -199 386 -316 657 -419 41 -16 78 -32 81 -37 3 -4
10 -342 14 -750 10 -903 10 -887 6 -1019 -3 -95 -1 -110 18 -141 25 -40 69
-62 107 -53 44 11 87 46 190 156 54 57 205 213 334 345 459 468 692 710 1069
1108 l244 257 106 3 c58 1 444 2 856 2 826 0 783 -3 1015 66 147 44 304 121
471 230 190 125 492 398 605 548 72 96 151 249 189 365 80 240 69 643 -22 820
-14 27 -13 31 17 72 99 138 160 395 140 592 -11 104 -15 126 -47 232 -75 253
-290 514 -491 596 l-57 23 -31 88 c-78 224 -229 418 -431 554 -135 91 -326
156 -481 164 l-83 4 -43 58 c-122 167 -327 283 -598 339 -75 16 -169 18 -998
19 -503 0 -931 -1 -950 -3z m1942 -291 c254 -65 421 -201 509 -413 16 -39 31
-73 32 -74 2 -2 31 6 66 16 172 54 383 -2 537 -144 116 -106 190 -229 234
-393 l22 -81 46 -12 c70 -17 144 -53 227 -111 317 -219 420 -602 255 -948 -34
-70 -57 -101 -136 -180 -109 -109 -108 -98 -24 -201 106 -133 123 -194 118
-418 -4 -158 -6 -172 -37 -257 -60 -166 -106 -240 -215 -353 -62 -64 -130
-122 -180 -154 -45 -28 -117 -83 -161 -121 -210 -182 -455 -297 -690 -326 -59
-7 -365 -10 -895 -9 -719 1 -811 0 -860 -15 -81 -24 -188 -117 -455 -393 -126
-131 -338 -349 -471 -484 -132 -135 -344 -352 -470 -484 l-228 -238 -9 33 c-5
19 -7 75 -3 124 3 50 0 338 -6 640 -9 437 -9 577 1 679 11 107 11 131 -1 141
-7 8 -94 48 -193 90 -229 97 -450 212 -540 280 -205 154 -361 327 -444 492
-43 86 -91 257 -102 366 -19 184 17 312 121 431 28 32 58 69 67 83 18 27 22
19 -72 124 -66 72 -132 183 -156 260 -11 34 -25 104 -31 154 -10 78 -9 108 4
191 30 177 95 303 222 429 80 79 154 122 288 168 l91 32 42 135 c47 152 78
219 142 302 114 149 257 213 473 211 89 -1 129 -6 179 -22 35 -12 65 -21 66
-19 2 2 21 36 43 77 84 154 195 257 375 346 109 54 157 58 501 50 l303 -7 6
-335 c4 -185 4 -555 0 -823 l-6 -488 -131 -6 c-72 -4 -467 -7 -878 -9 l-747
-2 -11 25 c-38 86 -108 146 -211 180 -84 29 -153 23 -237 -19 -127 -64 -182
-145 -190 -280 -5 -96 18 -162 86 -246 98 -122 245 -162 376 -102 68 31 162
123 174 170 l8 32 880 -3 c483 -2 880 -5 881 -6 1 -1 3 -340 5 -753 l3 -752
-65 -20 c-36 -11 -114 -25 -175 -31 -118 -12 -257 -52 -335 -97 -68 -39 -171
-117 -211 -160 -79 -84 -210 -263 -193 -263 3 0 2 -6 -4 -12 -8 -10 -32 -159
-32 -199 0 -3 22 -3 49 2 101 16 181 75 311 229 114 135 146 165 215 196 41
18 181 44 242 44 7 0 26 -28 41 -62 51 -111 139 -167 244 -155 57 7 96 27 149
74 63 57 84 105 83 193 0 93 -14 144 -59 210 -32 48 -34 53 -21 78 9 18 16 86
21 207 4 99 13 228 20 286 12 91 12 120 -1 197 -12 75 -14 297 -12 1393 l3
1304 305 0 c168 0 325 -3 350 -7 33 -6 65 -3 120 11 103 27 262 27 362 2z
m-3368 -1759 c12 -35 0 -25 -24 21 -20 38 -20 40 -2 21 11 -11 23 -30 26 -42z
m-195 -87 c11 -20 16 -33 11 -30 -17 11 -50 83 -49 107 1 18 3 16 9 -9 4 -17
17 -48 29 -68z m191 41 c0 -8 -11 -28 -25 -43 -19 -22 -24 -24 -25 -10 0 9 5
17 10 17 6 0 10 9 10 19 0 16 7 24 28 30 1 1 2 -5 2 -13z m-84 -89 c4 -4 -9
-7 -29 -7 -20 0 -37 4 -37 9 0 10 55 9 66 -2z"/>
<path d="M3959 7846 c-95 -25 -202 -130 -235 -230 -21 -62 -14 -173 14 -236
27 -63 90 -130 153 -165 48 -27 63 -30 139 -30 106 1 159 24 234 106 70 75 98
136 104 226 15 224 -189 388 -409 329z m171 -390 c0 -2 -8 -10 -17 -17 -16
-13 -17 -12 -4 4 13 16 21 21 21 13z"/>
<path d="M5833 7842 c-138 -49 -245 -211 -230 -345 13 -110 98 -234 186 -273
l41 -18 0 -90 c1 -203 19 -752 26 -769 3 -10 34 -32 67 -48 50 -26 64 -29 84
-20 16 8 190 11 547 11 l523 0 18 -41 c24 -52 94 -121 154 -151 38 -19 62 -23
141 -23 87 0 100 3 149 30 66 36 122 99 162 181 29 58 31 70 27 136 -11 174
-115 291 -291 328 -131 27 -272 -42 -333 -162 l-24 -48 -489 0 -488 0 -7 113
c-3 61 -9 214 -12 339 l-7 226 51 37 c60 43 115 125 133 197 34 146 -43 310
-179 379 -63 32 -176 37 -249 11z m1655 -1479 c-7 -15 -22 -29 -33 -30 -18 -3
-18 -2 2 8 12 6 24 23 28 36 3 14 8 23 11 20 3 -3 0 -18 -8 -34z"/>
<path d="M5490 6903 c-36 -76 -41 -141 -38 -537 1 -225 -2 -381 -8 -383 -63
-21 -133 -107 -165 -202 -59 -175 39 -387 210 -452 77 -29 180 -23 243 14 109
63 192 202 192 318 0 128 -81 265 -177 300 -26 9 -37 19 -37 34 0 11 -1 206
-1 433 l-2 412 -27 20 c-16 11 -32 20 -37 20 -4 0 -32 16 -60 35 -29 19 -56
35 -62 35 -5 0 -19 -21 -31 -47z"/>
<path d="M4018 5958 c-69 -68 -414 -493 -439 -540 -5 -10 -19 -18 -31 -18 -64
0 -159 -86 -187 -169 -24 -73 -7 -175 37 -224 31 -35 108 -67 160 -67 124 0
237 143 217 275 l-6 45 133 157 c235 278 358 440 358 474 0 32 -128 109 -181
109 -10 0 -38 -19 -61 -42z"/>
<path d="M7247 5379 c-87 -21 -150 -80 -200 -188 -26 -54 -31 -79 -31 -137 0
-60 5 -81 32 -137 52 -105 128 -149 257 -150 115 -1 213 58 265 160 21 41 25
62 25 138 0 105 -17 146 -92 226 -71 76 -169 110 -256 88z"/>
<path d="M2425 5344 c-47 -24 -103 -84 -130 -138 -33 -65 -33 -134 -1 -201 43
-93 111 -130 226 -123 60 3 75 8 125 42 62 43 104 105 112 165 12 91 -53 208
-140 250 -53 26 -148 28 -192 5z"/>
<path d="M6555 4746 c-50 -18 -121 -95 -135 -144 -44 -161 60 -322 210 -322
64 0 106 18 160 67 95 85 106 196 29 308 -53 79 -179 122 -264 91z"/>
<path d="M5345 2943 c-51 -13 -116 -88 -129 -150 -11 -47 13 -112 59 -159 76
-79 164 -81 246 -7 51 46 69 81 69 133 0 121 -124 213 -245 183z"/>
<path d="M6650 2943 c-56 -10 -150 -116 -150 -167 0 -68 51 -151 111 -182 40
-20 95 -18 146 7 50 24 78 59 94 120 32 121 -80 244 -201 222z"/>
<path d="M7234 2931 c-43 -26 -102 -105 -110 -146 -12 -65 44 -168 109 -198
70 -33 155 -11 214 56 101 115 13 307 -139 307 -25 0 -56 -8 -74 -19z"/>
<path d="M5958 2903 c-83 -76 -98 -169 -38 -252 37 -51 76 -71 136 -71 57 0
105 27 145 83 24 32 29 50 29 94 0 60 -9 84 -49 126 -38 42 -73 57 -130 57
-45 0 -56 -5 -93 -37z"/>
</g>
</svg>
